<svg width="1440" height="1024" viewBox="0 0 1440 1024" fill="none" xmlns="http://www.w3.org/2000/svg">
<g id="bg" clip-path="url(#clip0_2_2)">
<rect width="1440" height="1024" fill="#151528"/>
<path id="Vector" fill-rule="evenodd" clip-rule="evenodd" d="M98.7446 1191.44C44.4903 1167.84 17.6912 1109.46 -11.2232 1051.66C-52.2363 969.69 -128.066 894.121 -97.9833 798.229C-64.5688 691.718 34.9319 622.52 129.21 604.026C219.015 586.411 296.136 641.953 360.046 708.384C423.855 774.711 487.461 857.519 473.882 962.299C460.721 1063.85 378.21 1137.27 298.123 1186.19C233.665 1225.56 162.157 1219.01 98.7446 1191.44Z" fill="#1D1D38"/>
<circle id="Ellipse" cx="523" cy="432" r="27" fill="#6610F2"/>
<circle id="Ellipse_2" cx="523" cy="432" r="27" fill="#6610F2"/>
<circle id="Ellipse_3" cx="1438.5" cy="459.5" r="59.5" fill="#12EAEA"/>
<path id="Vector_2" fill-rule="evenodd" clip-rule="evenodd" d="M1440.01 456.766C1515.01 493.006 1603.71 520.107 1637.48 600.927C1671.1 681.416 1642.44 781.304 1612.88 870.59C1586.7 949.644 1535.06 1013.46 1480.32 1075.57C1423.91 1139.56 1369 1213.16 1292 1234.65C1213.4 1256.58 1135.24 1229.16 1068.28 1190.56C1003.74 1153.35 957.777 1092.4 923.849 1022.4C888.695 949.877 855.873 870.381 871.738 785.071C887.658 699.469 951.639 633.254 1008.54 566.982C1068.12 497.598 1125.3 414.551 1208.02 393.42C1291.49 372.099 1366.36 421.179 1440.01 456.766Z" fill="url(#paint0_linear_2_2)"/>
<circle id="Ellipse_4" cx="967" cy="946" r="27" fill="#56E39F"/>
<circle id="Ellipse_5" cx="916" cy="712" r="65" fill="#27274B" fill-opacity="0.2"/>
<circle id="Ellipse_6" cx="1181" cy="640" r="73" fill="#6610F2"/>
<circle id="Ellipse_7" cx="1240.5" cy="742.5" r="113.5" fill="#F5006A"/>
<circle id="Ellipse_8" cx="1325" cy="800" r="27" fill="#FFD166"/>
<circle id="Ellipse_9" cx="557.5" cy="735.5" r="195.5" fill="#27274B" fill-opacity="0.2"/>
<circle id="Ellipse_10" cx="523" cy="790" r="27" fill="#12EAEA"/>
<circle id="Ellipse_11" cx="824" cy="566" r="27" fill="#6610F2"/>
<circle id="Ellipse_12" cx="272.5" cy="588.5" r="67.5" fill="#FFD166"/>
<circle id="Ellipse_13" cx="340.686" cy="569.827" r="21.5" transform="rotate(-94.6515 340.686 569.827)" fill="#EF476F"/>
<circle id="Ellipse_14" cx="878" cy="513" r="27" fill="#FFD166"/>
<circle id="Ellipse_15" cx="800.686" cy="501.827" r="21.5" transform="rotate(-94.6515 800.686 501.827)" fill="#EF476F"/>
<circle id="Ellipse_16" cx="1244" cy="293" r="27" fill="#6610F2"/>
<circle id="Ellipse_17" cx="1211" cy="303" r="11" fill="#FFD166"/>
<circle id="Ellipse_18" cx="834.516" cy="206.928" r="37.5" transform="rotate(15 834.516 206.928)" fill="#F5006A"/>
<circle id="Ellipse_19" cx="909.083" cy="259.283" r="68" transform="rotate(15 909.083 259.283)" fill="#12EAEA"/>
<circle id="Ellipse_20" cx="809.468" cy="303.126" r="94" transform="rotate(15 809.468 303.126)" fill="#27274B" fill-opacity="0.2"/>
<circle id="Ellipse_21" cx="1115" cy="132" r="27" fill="#EF476F"/>
<circle id="Ellipse_22" cx="619" cy="90" r="27" fill="#FFD166"/>
<path id="Vector_3" fill-rule="evenodd" clip-rule="evenodd" d="M349.683 35.8386C336.835 80.1552 294.342 106.699 252.517 134.82C193.192 174.708 142.289 240.89 65.118 227.169C-20.5982 211.929 -84.0338 141.854 -107.727 70.769C-130.296 3.05692 -95.0133 -62.1292 -49.9912 -118.18C-5.03987 -174.144 52.68 -231.591 135.082 -231.521C214.943 -231.454 279.956 -174.941 325.77 -117.863C362.644 -71.9239 364.699 -15.9585 349.683 35.8386Z" fill="#1D1D38"/>
<circle id="Ellipse_23" cx="261" cy="156" r="94" fill="#27274B" fill-opacity="0.2"/>
<circle id="Ellipse_24" cx="205.686" cy="240.827" r="21.5" transform="rotate(-94.6515 205.686 240.827)" fill="#EF476F"/>
<circle id="Ellipse_25" cx="141.251" cy="212.505" r="38.5" transform="rotate(-94.6515 141.251 212.505)" fill="#56E39F"/>
</g>
<defs>
<linearGradient id="paint0_linear_2_2" x1="1299.67" y1="554.985" x2="1461.24" y2="1101.43" gradientUnits="userSpaceOnUse">
<stop stop-color="#1D1D38"/>
<stop offset="1" stop-color="#1D1D38" stop-opacity="0"/>
</linearGradient>
<clipPath id="clip0_2_2">
<rect width="1440" height="1024" fill="white"/>
</clipPath>
</defs>
</svg>
