<svg width="339" height="214" viewBox="0 0 339 214" fill="none" xmlns="http://www.w3.org/2000/svg">
<g id="space" clip-path="url(#clip0_14_148)">
<rect id="Rectangle" width="339" height="214" fill="url(#paint0_linear_14_148)"/>
<circle id="Ellipse" cx="291.37" cy="206.411" r="30.5" transform="rotate(-92.0845 291.37 206.411)" fill="url(#paint1_linear_14_148)" fill-opacity="0.4"/>
<path id="Vector" fill-rule="evenodd" clip-rule="evenodd" d="M281.149 151.904C293.881 146.906 307.235 144.715 320.47 148.244C333.392 151.689 343.98 159.931 351.861 170.758C360.59 182.75 368.621 196.463 366.21 211.08C363.669 226.482 353.498 240.761 339.266 247.112C326.118 252.979 312.363 243.216 298.054 241.493C279.803 239.295 258.064 249.081 245.312 235.797C231.873 221.797 231.565 197.968 239.174 180.153C246.068 164.015 264.827 158.31 281.149 151.904Z" fill="url(#paint2_linear_14_148)" fill-opacity="0.13"/>
<path id="Vector_2" fill-rule="evenodd" clip-rule="evenodd" d="M48.0543 2.46043C54.0906 12.4466 57.8566 23.3593 56.7957 34.9964C55.7598 46.3583 50.3549 56.4481 42.3861 64.6346C33.5601 73.7016 23.1858 82.4296 10.548 82.5075C-2.76898 82.5896 -16.2403 76.0942 -23.6306 65.0415C-30.4572 54.8317 -24.2296 41.8595 -24.8416 29.5798C-25.6222 13.9166 -36.9822 -2.95339 -27.6491 -15.5888C-17.8129 -28.9053 2.17944 -32.5974 18.2547 -28.7647C32.8178 -25.2926 40.3165 -10.3408 48.0543 2.46043Z" fill="url(#paint3_linear_14_148)" fill-opacity="0.2"/>
<path id="Vector_3" fill-rule="evenodd" clip-rule="evenodd" d="M135.717 60.2205C152.284 59.1486 168.533 61.5507 182.53 70.5223C196.196 79.2818 205.39 92.7232 210.5 108.154C216.159 125.244 220.375 144.066 212.185 160.074C203.555 176.941 186.519 189.69 167.717 191.772C150.349 193.695 138.055 177.325 122.15 170.044C101.861 160.757 73.1113 164.036 63.2791 143.965C52.9169 122.812 61.3671 95.1491 76.749 77.3664C90.684 61.2563 114.48 61.5946 135.717 60.2205Z" fill="url(#paint4_linear_14_148)" fill-opacity="0.33"/>
<path id="Vector_4" fill-rule="evenodd" clip-rule="evenodd" d="M260.644 -67.6627C275.557 -77.7399 292.074 -84.3919 310.084 -83.6645C327.668 -82.9544 343.632 -75.4145 356.865 -63.7766C371.52 -50.8869 385.774 -35.5855 386.879 -16.1231C388.043 4.38529 379.087 25.644 362.637 37.8902C347.441 49.2024 326.971 40.6197 308.102 42.5196C284.034 44.9429 258.931 63.7578 238.739 50.3649C217.458 36.2501 210.213 5.73977 214.864 -19.3228C219.078 -42.0279 241.526 -54.745 260.644 -67.6627Z" fill="url(#paint5_linear_14_148)" fill-opacity="0.2"/>
</g>
<defs>
<linearGradient id="paint0_linear_14_148" x1="108" y1="55" x2="258" y2="157" gradientUnits="userSpaceOnUse">
<stop stop-color="#4A4A8E"/>
<stop offset="1" stop-color="#31315E"/>
</linearGradient>
<linearGradient id="paint1_linear_14_148" x1="291.37" y1="175.911" x2="291.37" y2="236.911" gradientUnits="userSpaceOnUse">
<stop stop-color="#1D1D38"/>
<stop offset="1" stop-color="#1D1D38" stop-opacity="0"/>
</linearGradient>
<linearGradient id="paint2_linear_14_148" x1="264.809" y1="192.187" x2="338.303" y2="184.033" gradientUnits="userSpaceOnUse">
<stop stop-color="#4A4A8E"/>
<stop offset="1" stop-color="#31315E"/>
</linearGradient>
<linearGradient id="paint3_linear_14_148" x1="11.8285" y1="-5.4768" x2="29.2708" y2="55.146" gradientUnits="userSpaceOnUse">
<stop stop-color="#4A4A8E"/>
<stop offset="1" stop-color="#31315E"/>
</linearGradient>
<linearGradient id="paint4_linear_14_148" x1="101.937" y1="100.753" x2="189.918" y2="118.49" gradientUnits="userSpaceOnUse">
<stop stop-color="#4A4A8E"/>
<stop offset="1" stop-color="#31315E"/>
</linearGradient>
<linearGradient id="paint5_linear_14_148" x1="251.24" y1="-11.2384" x2="343.27" y2="-42.833" gradientUnits="userSpaceOnUse">
<stop stop-color="#4A4A8E"/>
<stop offset="1" stop-color="#31315E"/>
</linearGradient>
<clipPath id="clip0_14_148">
<rect width="339" height="214" fill="white"/>
</clipPath>
</defs>
</svg>
