<svg width="1440" height="1024" viewBox="0 0 1440 1024" fill="none" xmlns="http://www.w3.org/2000/svg">
<g clip-path="url(#clip0_30_16)">
<rect width="1440" height="1024" fill="url(#paint0_linear_30_16)"/>
<path fill-rule="evenodd" clip-rule="evenodd" d="M1194.93 -169.227C1254.04 -166.703 1300.03 -121.846 1347.78 -78.3027C1415.51 -16.5389 1513.43 26.7378 1519.81 127.035C1526.89 238.439 1458.9 338.768 1377.56 389.901C1300.09 438.608 1208.16 414.485 1124.65 375.453C1041.27 336.483 952.156 282.059 927.18 179.398C902.975 79.9022 953.593 -18.2663 1010.76 -92.6935C1056.76 -152.596 1125.85 -172.177 1194.93 -169.227Z" fill="#232F43"/>
<circle cx="255.585" cy="450.585" r="108.123" transform="rotate(74.1169 255.585 450.585)" fill="url(#paint1_linear_30_16)"/>
<circle cx="1005.77" cy="361.773" r="195.5" transform="rotate(-65.0196 1005.77 361.773)" fill="url(#paint2_linear_30_16)" fill-opacity="0.44"/>
<circle cx="895.622" cy="488.139" r="27" transform="rotate(170.187 895.622 488.139)" fill="#6610F2"/>
<circle cx="895.622" cy="488.139" r="27" transform="rotate(170.187 895.622 488.139)" fill="#6610F2"/>
<circle cx="-11.1686" cy="617.068" r="59.5" transform="rotate(170.187 -11.1686 617.068)" fill="#6610F2"/>
<circle cx="1294.77" cy="124.77" r="59.5" transform="rotate(170.187 1294.77 124.77)" fill="#F5006A"/>
<path fill-rule="evenodd" clip-rule="evenodd" d="M345.936 56.2999C408.977 110.746 487.62 159.917 499.274 246.727C510.88 333.181 457.307 422.224 405.606 500.793C359.83 570.357 293.403 618.605 224.437 664.393C153.366 711.578 81.25 768.418 1.31724 769.209C-80.2807 770.017 -148.665 723.269 -203.326 668.627C-256.015 615.957 -284.603 545.175 -299.223 468.776C-314.372 389.616 -325.461 304.329 -288.021 226.049C-250.453 147.501 -171.492 100.139 -99.3528 50.8853C-23.8263 -0.680681 52.9291 -66.0634 138.303 -65.0252C224.444 -63.9778 284.031 2.83545 345.936 56.2999Z" fill="url(#paint3_linear_30_16)"/>
<circle cx="370.52" cy="57.3282" r="27" transform="rotate(170.187 370.52 57.3282)" fill="#F5006A"/>
<circle cx="460.655" cy="279.213" r="65" transform="rotate(170.187 460.655 279.213)" fill="#27274B" fill-opacity="0.2"/>
<circle cx="236.946" cy="244.946" r="50.9999" transform="rotate(170.187 236.946 244.946)" fill="#12EAEA"/>
<circle cx="1387.55" cy="190.552" r="20.3768" transform="rotate(170.187 1387.55 190.552)" fill="#12EAEA"/>
<circle cx="256.059" cy="939.988" r="27.7377" transform="rotate(170.187 256.059 939.988)" fill="#12EAEA"/>
<circle cx="955.295" cy="608.295" r="72.9322" transform="rotate(170.187 955.295 608.295)" fill="#12EAEA"/>
<circle cx="834.609" cy="135.376" r="27" transform="rotate(170.187 834.609 135.376)" fill="#F5006A"/>
<circle cx="576.191" cy="407.398" r="27" transform="rotate(170.187 576.191 407.398)" fill="#2CF6B3"/>
<circle cx="759.782" cy="174.782" r="67.5" transform="rotate(148.602 759.782 174.782)" fill="url(#paint4_linear_30_16)"/>
<circle cx="1051.78" cy="321.257" r="21.5" transform="rotate(75.5358 1051.78 321.257)" fill="#F5006A"/>
<circle cx="686.815" cy="544.815" r="95.8772" transform="rotate(170.187 686.815 544.815)" fill="#F5006A"/>
<circle cx="667.189" cy="454.189" r="21.5" transform="rotate(75.5358 667.189 454.189)" fill="#6610F2"/>
<circle cx="626.861" cy="899.86" r="200" transform="rotate(77.3817 626.861 899.86)" fill="url(#paint5_linear_30_16)" fill-opacity="0.44"/>
<circle cx="859.313" cy="841.496" r="27" transform="rotate(170.187 859.313 841.496)" fill="#2CF6B3"/>
<path fill-rule="evenodd" clip-rule="evenodd" d="M1133.92 848.966C1139.03 803.108 1176.38 769.711 1212.8 734.873C1264.45 685.458 1303.33 611.568 1381.71 611.937C1468.77 612.345 1543.22 670.584 1578.69 736.591C1612.46 799.466 1588.81 869.712 1554 932.616C1519.24 995.421 1472.16 1061.87 1390.95 1075.84C1312.24 1089.38 1238.55 1044.78 1183.68 996.344C1139.51 957.361 1127.95 902.565 1133.92 848.966Z" fill="url(#paint6_linear_30_16)"/>
<circle cx="1311.92" cy="900.724" r="85.325" transform="rotate(170.187 1311.92 900.724)" fill="#6610F2"/>
<circle cx="1200.83" cy="715.449" r="94" transform="rotate(170.187 1200.83 715.449)" fill="#2A3850" fill-opacity="0.44"/>
<circle cx="1390.19" cy="607.189" r="21.5" transform="rotate(75.5358 1390.19 607.189)" fill="#6610F2"/>
<circle cx="1261.9" cy="794.896" r="38.5" transform="rotate(75.5358 1261.9 794.896)" fill="#F5006A"/>
<circle cx="1242.73" cy="404.729" r="135.991" transform="rotate(-174.813 1242.73 404.729)" fill="url(#paint7_linear_30_16)"/>
<circle cx="593.95" cy="714.95" r="53.3455" transform="rotate(-174.813 593.95 714.95)" fill="#6610F2"/>
<circle cx="165.95" cy="888.95" r="53.3455" transform="rotate(-174.813 165.95 888.95)" fill="#F5006A"/>
<circle cx="1181.04" cy="50.0375" r="35.9357" transform="rotate(-174.813 1181.04 50.0375)" fill="#6610F2"/>
<circle cx="366.865" cy="762.865" r="113.5" transform="rotate(-170.996 366.865 762.865)" fill="url(#paint8_linear_30_16)"/>
</g>
<defs>
<linearGradient id="paint0_linear_30_16" x1="720" y1="354" x2="1121" y2="904.5" gradientUnits="userSpaceOnUse">
<stop stop-color="#242C42"/>
<stop offset="0.0166382" stop-color="#242C42"/>
<stop offset="0.0344974" stop-color="#242C42"/>
<stop offset="0.0549451" stop-color="#242C41"/>
<stop offset="0.0793488" stop-color="#232B41"/>
<stop offset="0.109076" stop-color="#232B40"/>
<stop offset="0.145495" stop-color="#232B40"/>
<stop offset="0.189972" stop-color="#222A3E"/>
<stop offset="0.243875" stop-color="#21293D"/>
<stop offset="0.308571" stop-color="#20283B"/>
<stop offset="0.385429" stop-color="#1F2739"/>
<stop offset="0.475816" stop-color="#1E2537"/>
<stop offset="0.581099" stop-color="#1C2334"/>
<stop offset="0.702645" stop-color="#1A2130"/>
<stop offset="0.841823" stop-color="#181F2C"/>
<stop offset="1" stop-color="#151C28"/>
</linearGradient>
<linearGradient id="paint1_linear_30_16" x1="255.585" y1="342.463" x2="255.585" y2="558.708" gradientUnits="userSpaceOnUse">
<stop offset="0.0395832" stop-color="#DE369D"/>
<stop offset="1" stop-color="#6610F2"/>
</linearGradient>
<linearGradient id="paint2_linear_30_16" x1="1005.77" y1="166.273" x2="1005.77" y2="557.273" gradientUnits="userSpaceOnUse">
<stop stop-color="#465E86"/>
<stop offset="1" stop-color="#465E86" stop-opacity="0"/>
</linearGradient>
<linearGradient id="paint3_linear_30_16" x1="184.927" y1="114.776" x2="199.302" y2="684.426" gradientUnits="userSpaceOnUse">
<stop stop-color="#2A3850"/>
<stop offset="1" stop-color="#2A3850" stop-opacity="0"/>
</linearGradient>
<linearGradient id="paint4_linear_30_16" x1="759.782" y1="107.282" x2="759.782" y2="242.282" gradientUnits="userSpaceOnUse">
<stop stop-color="#2CF6B3"/>
<stop offset="1" stop-color="#12EAEA"/>
</linearGradient>
<linearGradient id="paint5_linear_30_16" x1="626.861" y1="699.86" x2="626.861" y2="1099.86" gradientUnits="userSpaceOnUse">
<stop stop-color="#2A3850"/>
<stop offset="1" stop-color="#2A3850" stop-opacity="0"/>
</linearGradient>
<linearGradient id="paint6_linear_30_16" x1="1131.93" y1="849.904" x2="1595.83" y2="840.648" gradientUnits="userSpaceOnUse">
<stop stop-color="#2A3850"/>
<stop offset="1" stop-color="#2A3850" stop-opacity="0"/>
</linearGradient>
<linearGradient id="paint7_linear_30_16" x1="1242.73" y1="268.738" x2="1242.73" y2="540.719" gradientUnits="userSpaceOnUse">
<stop stop-color="#12EAEA"/>
<stop offset="1" stop-color="#BCED09"/>
</linearGradient>
<linearGradient id="paint8_linear_30_16" x1="363.671" y1="744.603" x2="352.266" y2="896.257" gradientUnits="userSpaceOnUse">
<stop stop-color="#FF621F"/>
<stop offset="1" stop-color="#F5006A"/>
</linearGradient>
<clipPath id="clip0_30_16">
<rect width="1440" height="1024" fill="white"/>
</clipPath>
</defs>
</svg>
