<svg width="680" height="985" viewBox="0 0 680 985" fill="none" xmlns="http://www.w3.org/2000/svg">
<g id="main" clip-path="url(#clip0_14_135)">
<rect id="Rectangle" width="680" height="985" fill="url(#paint0_linear_14_135)"/>
<circle id="Ellipse" cx="680.429" cy="944.154" r="159" transform="rotate(14.7057 680.429 944.154)" fill="#530DC4" fill-opacity="0.22"/>
<circle id="Ellipse_2" cy="518" r="113" fill="#2C0769" fill-opacity="0.2"/>
<circle id="Ellipse_3" cx="562" cy="161" r="60" fill="url(#paint1_linear_14_135)" fill-opacity="0.33"/>
<path id="Vector" fill-rule="evenodd" clip-rule="evenodd" d="M642.615 259.8C605.717 323.565 599.011 413.927 528.804 436.37C451.117 461.203 355.861 432.27 306.635 367.198C262.357 308.667 308.32 231.03 318.53 158.409C327.28 96.174 313.211 25.6049 360.484 -15.8044C412.789 -61.6209 488.17 -65.2998 555.963 -49.5738C631.213 -32.1183 718.75 -2.21953 739.575 72.1327C759.566 143.506 679.718 195.682 642.615 259.8Z" fill="url(#paint2_linear_14_135)" fill-opacity="0.33"/>
</g>
<defs>
<linearGradient id="paint0_linear_14_135" x1="340" y1="547" x2="528" y2="937" gradientUnits="userSpaceOnUse">
<stop stop-color="#530DC4"/>
<stop offset="1" stop-color="#E00061"/>
</linearGradient>
<linearGradient id="paint1_linear_14_135" x1="517.575" y1="116.701" x2="616.197" y2="155.343" gradientUnits="userSpaceOnUse">
<stop stop-color="#F5006A"/>
<stop offset="1" stop-color="#6610F2"/>
</linearGradient>
<linearGradient id="paint2_linear_14_135" x1="650.03" y1="280.504" x2="300.151" y2="79.1128" gradientUnits="userSpaceOnUse">
<stop stop-color="#2C0769"/>
<stop offset="1" stop-color="#2C0769" stop-opacity="0"/>
</linearGradient>
<clipPath id="clip0_14_135">
<rect width="680" height="985" fill="white"/>
</clipPath>
</defs>
</svg>
